<svg viewBox="0 0 640 480" xmlns="http://www.w3.org/2000/svg">
  <defs>
    <radialGradient id="bg" cx="50%" cy="40%" r="80%">
      <stop offset="0%" stop-color="#7C1428"/><stop offset="100%" stop-color="#4E0B16"/>
    </radialGradient>
    <radialGradient id="med" cx="42%" cy="34%" r="80%">
      <stop offset="0%" stop-color="#F4ECDE"/><stop offset="100%" stop-color="#E3D4BD"/>
    </radialGradient>
  </defs>
  <rect width="640" height="480" fill="url(#bg)"/>
  <g opacity="0.30"><polygon points="492.0,226.0 620.0,226.0 619.8,236.5" fill="#C9A14B"/><polygon points="490.5,248.5 617.4,265.2 615.9,275.5" fill="#C9A14B"/><polygon points="486.1,270.5 609.8,303.6 606.9,313.7" fill="#C9A14B"/><polygon points="478.9,291.8 597.2,340.8 593.0,350.4" fill="#C9A14B"/><polygon points="469.0,312.0 579.8,376.0 574.4,385.0" fill="#C9A14B"/><polygon points="456.5,330.7 558.0,408.6 551.5,416.8" fill="#C9A14B"/><polygon points="441.6,347.6 532.1,438.1 524.6,445.4" fill="#C9A14B"/><polygon points="424.7,362.5 502.6,464.0 494.2,470.2" fill="#C9A14B"/><polygon points="406.0,375.0 470.0,485.8 460.8,490.9" fill="#C9A14B"/><polygon points="385.8,384.9 434.8,503.2 425.1,507.0" fill="#C9A14B"/><polygon points="364.5,392.1 397.6,515.8 387.5,518.3" fill="#C9A14B"/><polygon points="342.5,396.5 359.2,523.4 348.8,524.6" fill="#C9A14B"/><polygon points="320.0,398.0 320.0,526.0 309.5,525.8" fill="#C9A14B"/><polygon points="297.5,396.5 280.8,523.4 270.5,521.9" fill="#C9A14B"/><polygon points="275.5,392.1 242.4,515.8 232.3,512.9" fill="#C9A14B"/><polygon points="254.2,384.9 205.2,503.2 195.6,499.0" fill="#C9A14B"/><polygon points="234.0,375.0 170.0,485.8 161.0,480.4" fill="#C9A14B"/><polygon points="215.3,362.5 137.4,464.0 129.2,457.5" fill="#C9A14B"/><polygon points="198.4,347.6 107.9,438.1 100.6,430.6" fill="#C9A14B"/><polygon points="183.5,330.7 82.0,408.6 75.8,400.2" fill="#C9A14B"/><polygon points="171.0,312.0 60.2,376.0 55.1,366.8" fill="#C9A14B"/><polygon points="161.1,291.8 42.8,340.8 39.0,331.1" fill="#C9A14B"/><polygon points="153.9,270.5 30.2,303.6 27.7,293.5" fill="#C9A14B"/><polygon points="149.5,248.5 22.6,265.2 21.4,254.8" fill="#C9A14B"/><polygon points="148.0,226.0 20.0,226.0 20.2,215.5" fill="#C9A14B"/><polygon points="149.5,203.5 22.6,186.8 24.1,176.5" fill="#C9A14B"/><polygon points="153.9,181.5 30.2,148.4 33.1,138.3" fill="#C9A14B"/><polygon points="161.1,160.2 42.8,111.2 47.0,101.6" fill="#C9A14B"/><polygon points="171.0,140.0 60.2,76.0 65.6,67.0" fill="#C9A14B"/><polygon points="183.5,121.3 82.0,43.4 88.5,35.2" fill="#C9A14B"/><polygon points="198.4,104.4 107.9,13.9 115.4,6.6" fill="#C9A14B"/><polygon points="215.3,89.5 137.4,-12.0 145.8,-18.2" fill="#C9A14B"/><polygon points="234.0,77.0 170.0,-33.8 179.2,-38.9" fill="#C9A14B"/><polygon points="254.2,67.1 205.2,-51.2 214.9,-55.0" fill="#C9A14B"/><polygon points="275.5,59.9 242.4,-63.8 252.5,-66.3" fill="#C9A14B"/><polygon points="297.5,55.5 280.8,-71.4 291.2,-72.6" fill="#C9A14B"/><polygon points="320.0,54.0 320.0,-74.0 330.5,-73.8" fill="#C9A14B"/><polygon points="342.5,55.5 359.2,-71.4 369.5,-69.9" fill="#C9A14B"/><polygon points="364.5,59.9 397.6,-63.8 407.7,-60.9" fill="#C9A14B"/><polygon points="385.8,67.1 434.8,-51.2 444.4,-47.0" fill="#C9A14B"/><polygon points="406.0,77.0 470.0,-33.8 479.0,-28.4" fill="#C9A14B"/><polygon points="424.7,89.5 502.6,-12.0 510.8,-5.5" fill="#C9A14B"/><polygon points="441.6,104.4 532.1,13.9 539.4,21.4" fill="#C9A14B"/><polygon points="456.5,121.3 558.0,43.4 564.2,51.8" fill="#C9A14B"/><polygon points="469.0,140.0 579.8,76.0 584.9,85.2" fill="#C9A14B"/><polygon points="478.9,160.2 597.2,111.2 601.0,120.9" fill="#C9A14B"/><polygon points="486.1,181.5 609.8,148.4 612.3,158.5" fill="#C9A14B"/><polygon points="490.5,203.5 617.4,186.8 618.6,197.2" fill="#C9A14B"/></g>
  <rect x="16" y="16" width="608" height="448" fill="none" stroke="#C9A14B" stroke-width="1.4" opacity="0.5"/>
  <rect x="22" y="22" width="596" height="436" fill="none" stroke="#C9A14B" stroke-width="0.8" opacity="0.35"/>
  <g transform="translate(234,86)"><path d="M0 0 q -14 -38 6 -46" fill="none" stroke="#C9A14B" stroke-width="3.4" stroke-linecap="round"/><path d="M7 0 q -14 -38 6 -46" fill="none" stroke="#A07E33" stroke-width="3.4" stroke-linecap="round"/><path d="M14 0 q -14 -38 6 -46" fill="none" stroke="#C9A14B" stroke-width="3.4" stroke-linecap="round"/><path d="M21 0 q -14 -41 6 -49" fill="none" stroke="#A07E33" stroke-width="3.4" stroke-linecap="round"/><path d="M28 0 q -14 -41 6 -49" fill="none" stroke="#C9A14B" stroke-width="3.4" stroke-linecap="round"/><path d="M35 0 q -14 -38 6 -46" fill="none" stroke="#A07E33" stroke-width="3.4" stroke-linecap="round"/><path d="M42 0 q -14 -38 6 -46" fill="none" stroke="#C9A14B" stroke-width="3.4" stroke-linecap="round"/><circle cx="20" cy="2" r="5" fill="#6E1023"/></g>
  <circle cx="320" cy="226" r="171" fill="none" stroke="#C9A14B" stroke-width="5"/>
  <circle cx="320" cy="226" r="163" fill="none" stroke="#A07E33" stroke-width="1.5"/>
  <circle cx="320" cy="226" r="158" fill="url(#med)"/>
  <g><line x1="468.0" y1="226.0" x2="458.0" y2="226.0" stroke="#A07E33" stroke-width="2.6" stroke-linecap="round"/><line x1="467.4" y1="238.9" x2="462.5" y2="238.5" stroke="#A07E33" stroke-width="1.4" stroke-linecap="round"/><line x1="465.8" y1="251.7" x2="460.8" y2="250.8" stroke="#A07E33" stroke-width="1.4" stroke-linecap="round"/><line x1="463.0" y1="264.3" x2="458.1" y2="263.0" stroke="#A07E33" stroke-width="1.4" stroke-linecap="round"/><line x1="459.1" y1="276.6" x2="454.4" y2="274.9" stroke="#A07E33" stroke-width="1.4" stroke-linecap="round"/><line x1="454.1" y1="288.5" x2="449.6" y2="286.4" stroke="#A07E33" stroke-width="1.4" stroke-linecap="round"/><line x1="448.2" y1="300.0" x2="439.5" y2="295.0" stroke="#A07E33" stroke-width="2.6" stroke-linecap="round"/><line x1="441.2" y1="310.9" x2="437.1" y2="308.0" stroke="#A07E33" stroke-width="1.4" stroke-linecap="round"/><line x1="433.4" y1="321.1" x2="429.5" y2="317.9" stroke="#A07E33" stroke-width="1.4" stroke-linecap="round"/><line x1="424.7" y1="330.7" x2="421.1" y2="327.1" stroke="#A07E33" stroke-width="1.4" stroke-linecap="round"/><line x1="415.1" y1="339.4" x2="411.9" y2="335.5" stroke="#A07E33" stroke-width="1.4" stroke-linecap="round"/><line x1="404.9" y1="347.2" x2="402.0" y2="343.1" stroke="#A07E33" stroke-width="1.4" stroke-linecap="round"/><line x1="394.0" y1="354.2" x2="389.0" y2="345.5" stroke="#A07E33" stroke-width="2.6" stroke-linecap="round"/><line x1="382.5" y1="360.1" x2="380.4" y2="355.6" stroke="#A07E33" stroke-width="1.4" stroke-linecap="round"/><line x1="370.6" y1="365.1" x2="368.9" y2="360.4" stroke="#A07E33" stroke-width="1.4" stroke-linecap="round"/><line x1="358.3" y1="369.0" x2="357.0" y2="364.1" stroke="#A07E33" stroke-width="1.4" stroke-linecap="round"/><line x1="345.7" y1="371.8" x2="344.8" y2="366.8" stroke="#A07E33" stroke-width="1.4" stroke-linecap="round"/><line x1="332.9" y1="373.4" x2="332.5" y2="368.5" stroke="#A07E33" stroke-width="1.4" stroke-linecap="round"/><line x1="320.0" y1="374.0" x2="320.0" y2="364.0" stroke="#A07E33" stroke-width="2.6" stroke-linecap="round"/><line x1="307.1" y1="373.4" x2="307.5" y2="368.5" stroke="#A07E33" stroke-width="1.4" stroke-linecap="round"/><line x1="294.3" y1="371.8" x2="295.2" y2="366.8" stroke="#A07E33" stroke-width="1.4" stroke-linecap="round"/><line x1="281.7" y1="369.0" x2="283.0" y2="364.1" stroke="#A07E33" stroke-width="1.4" stroke-linecap="round"/><line x1="269.4" y1="365.1" x2="271.1" y2="360.4" stroke="#A07E33" stroke-width="1.4" stroke-linecap="round"/><line x1="257.5" y1="360.1" x2="259.6" y2="355.6" stroke="#A07E33" stroke-width="1.4" stroke-linecap="round"/><line x1="246.0" y1="354.2" x2="251.0" y2="345.5" stroke="#A07E33" stroke-width="2.6" stroke-linecap="round"/><line x1="235.1" y1="347.2" x2="238.0" y2="343.1" stroke="#A07E33" stroke-width="1.4" stroke-linecap="round"/><line x1="224.9" y1="339.4" x2="228.1" y2="335.5" stroke="#A07E33" stroke-width="1.4" stroke-linecap="round"/><line x1="215.3" y1="330.7" x2="218.9" y2="327.1" stroke="#A07E33" stroke-width="1.4" stroke-linecap="round"/><line x1="206.6" y1="321.1" x2="210.5" y2="317.9" stroke="#A07E33" stroke-width="1.4" stroke-linecap="round"/><line x1="198.8" y1="310.9" x2="202.9" y2="308.0" stroke="#A07E33" stroke-width="1.4" stroke-linecap="round"/><line x1="191.8" y1="300.0" x2="200.5" y2="295.0" stroke="#A07E33" stroke-width="2.6" stroke-linecap="round"/><line x1="185.9" y1="288.5" x2="190.4" y2="286.4" stroke="#A07E33" stroke-width="1.4" stroke-linecap="round"/><line x1="180.9" y1="276.6" x2="185.6" y2="274.9" stroke="#A07E33" stroke-width="1.4" stroke-linecap="round"/><line x1="177.0" y1="264.3" x2="181.9" y2="263.0" stroke="#A07E33" stroke-width="1.4" stroke-linecap="round"/><line x1="174.2" y1="251.7" x2="179.2" y2="250.8" stroke="#A07E33" stroke-width="1.4" stroke-linecap="round"/><line x1="172.6" y1="238.9" x2="177.5" y2="238.5" stroke="#A07E33" stroke-width="1.4" stroke-linecap="round"/><line x1="172.0" y1="226.0" x2="182.0" y2="226.0" stroke="#A07E33" stroke-width="2.6" stroke-linecap="round"/><line x1="172.6" y1="213.1" x2="177.5" y2="213.5" stroke="#A07E33" stroke-width="1.4" stroke-linecap="round"/><line x1="174.2" y1="200.3" x2="179.2" y2="201.2" stroke="#A07E33" stroke-width="1.4" stroke-linecap="round"/><line x1="177.0" y1="187.7" x2="181.9" y2="189.0" stroke="#A07E33" stroke-width="1.4" stroke-linecap="round"/><line x1="180.9" y1="175.4" x2="185.6" y2="177.1" stroke="#A07E33" stroke-width="1.4" stroke-linecap="round"/><line x1="185.9" y1="163.5" x2="190.4" y2="165.6" stroke="#A07E33" stroke-width="1.4" stroke-linecap="round"/><line x1="191.8" y1="152.0" x2="200.5" y2="157.0" stroke="#A07E33" stroke-width="2.6" stroke-linecap="round"/><line x1="198.8" y1="141.1" x2="202.9" y2="144.0" stroke="#A07E33" stroke-width="1.4" stroke-linecap="round"/><line x1="206.6" y1="130.9" x2="210.5" y2="134.1" stroke="#A07E33" stroke-width="1.4" stroke-linecap="round"/><line x1="215.3" y1="121.3" x2="218.9" y2="124.9" stroke="#A07E33" stroke-width="1.4" stroke-linecap="round"/><line x1="224.9" y1="112.6" x2="228.1" y2="116.5" stroke="#A07E33" stroke-width="1.4" stroke-linecap="round"/><line x1="235.1" y1="104.8" x2="238.0" y2="108.9" stroke="#A07E33" stroke-width="1.4" stroke-linecap="round"/><line x1="246.0" y1="97.8" x2="251.0" y2="106.5" stroke="#A07E33" stroke-width="2.6" stroke-linecap="round"/><line x1="257.5" y1="91.9" x2="259.6" y2="96.4" stroke="#A07E33" stroke-width="1.4" stroke-linecap="round"/><line x1="269.4" y1="86.9" x2="271.1" y2="91.6" stroke="#A07E33" stroke-width="1.4" stroke-linecap="round"/><line x1="281.7" y1="83.0" x2="283.0" y2="87.9" stroke="#A07E33" stroke-width="1.4" stroke-linecap="round"/><line x1="294.3" y1="80.2" x2="295.2" y2="85.2" stroke="#A07E33" stroke-width="1.4" stroke-linecap="round"/><line x1="307.1" y1="78.6" x2="307.5" y2="83.5" stroke="#A07E33" stroke-width="1.4" stroke-linecap="round"/><line x1="320.0" y1="78.0" x2="320.0" y2="88.0" stroke="#A07E33" stroke-width="2.6" stroke-linecap="round"/><line x1="332.9" y1="78.6" x2="332.5" y2="83.5" stroke="#A07E33" stroke-width="1.4" stroke-linecap="round"/><line x1="345.7" y1="80.2" x2="344.8" y2="85.2" stroke="#A07E33" stroke-width="1.4" stroke-linecap="round"/><line x1="358.3" y1="83.0" x2="357.0" y2="87.9" stroke="#A07E33" stroke-width="1.4" stroke-linecap="round"/><line x1="370.6" y1="86.9" x2="368.9" y2="91.6" stroke="#A07E33" stroke-width="1.4" stroke-linecap="round"/><line x1="382.5" y1="91.9" x2="380.4" y2="96.4" stroke="#A07E33" stroke-width="1.4" stroke-linecap="round"/><line x1="394.0" y1="97.8" x2="389.0" y2="106.5" stroke="#A07E33" stroke-width="2.6" stroke-linecap="round"/><line x1="404.9" y1="104.8" x2="402.0" y2="108.9" stroke="#A07E33" stroke-width="1.4" stroke-linecap="round"/><line x1="415.1" y1="112.6" x2="411.9" y2="116.5" stroke="#A07E33" stroke-width="1.4" stroke-linecap="round"/><line x1="424.7" y1="121.3" x2="421.1" y2="124.9" stroke="#A07E33" stroke-width="1.4" stroke-linecap="round"/><line x1="433.4" y1="130.9" x2="429.5" y2="134.1" stroke="#A07E33" stroke-width="1.4" stroke-linecap="round"/><line x1="441.2" y1="141.1" x2="437.1" y2="144.0" stroke="#A07E33" stroke-width="1.4" stroke-linecap="round"/><line x1="448.2" y1="152.0" x2="439.5" y2="157.0" stroke="#A07E33" stroke-width="2.6" stroke-linecap="round"/><line x1="454.1" y1="163.5" x2="449.6" y2="165.6" stroke="#A07E33" stroke-width="1.4" stroke-linecap="round"/><line x1="459.1" y1="175.4" x2="454.4" y2="177.1" stroke="#A07E33" stroke-width="1.4" stroke-linecap="round"/><line x1="463.0" y1="187.7" x2="458.1" y2="189.0" stroke="#A07E33" stroke-width="1.4" stroke-linecap="round"/><line x1="465.8" y1="200.3" x2="460.8" y2="201.2" stroke="#A07E33" stroke-width="1.4" stroke-linecap="round"/><line x1="467.4" y1="213.1" x2="462.5" y2="213.5" stroke="#A07E33" stroke-width="1.4" stroke-linecap="round"/></g>
  <g transform="translate(220,126)">
    <circle cx="158" cy="36" r="14" fill="#C9A14B"/><circle cx="151" cy="32" r="13" fill="#F4ECDE"/><circle cx="40" cy="28" r="2.2" fill="#C9A14B"/><circle cx="70" cy="46" r="2.2" fill="#C9A14B"/><circle cx="120" cy="24" r="2.2" fill="#C9A14B"/><polygon points="34,72 18,118 50,118" fill="#9B2740"/><polygon points="34,92 14,134 54,134" fill="#9B2740"/><rect x="31" y="134" width="6" height="14" fill="#4E0B16"/><polygon points="168,72 154,118 181,118" fill="#9B2740"/><polygon points="168,92 151,134 185,134" fill="#9B2740"/><rect x="165" y="134" width="6" height="14" fill="#4E0B16"/><rect x="0" y="166" width="200" height="10" fill="#6E1023"/><polygon points="86,52 150,166 22,166" fill="#6E1023"/><polygon points="86,52 86,166 50,166" fill="#4E0B16"/><polygon points="86,96 102,166 70,166" fill="#F4ECDE"/><line x1="86" y1="52" x2="86" y2="40" stroke="#9B2740" stroke-width="3"/><rect x="150" y="158" width="34" height="6" rx="3" fill="#4E0B16" transform="rotate(18 167 161)"/><rect x="150" y="158" width="34" height="6" rx="3" fill="#4E0B16" transform="rotate(-18 167 161)"/><path d="M167 156 c-14 -8 -16 -26 -4 -38 c0 12 10 8 8 20 c8 -4 6 -16 2 -22 c16 12 18 32 0 40 Z" fill="#6E1023"/><path d="M167 156 c-8 -5 -9 -16 -2 -23 c0 7 6 5 5 12 c4 -3 4 -9 1 -12 c9 7 10 18 0 23 Z" fill="#C9A14B"/>
  </g>
  <g transform="translate(320,440) scale(1,1)"><path d="M0 0 q -34 -6 -58 -34" fill="none" stroke="#C9A14B" stroke-width="3"/><path d="M-8 -2 q -10 -3 -16 -13 q 10 1 16 13 Z" fill="#C9A14B"/><path d="M-17 -7 q -10 -3 -16 -13 q 10 1 16 13 Z" fill="#C9A14B"/><path d="M-26 -13 q -10 -3 -16 -13 q 10 1 16 13 Z" fill="#C9A14B"/><path d="M-35 -18 q -10 -3 -16 -13 q 10 1 16 13 Z" fill="#C9A14B"/><path d="M-44 -24 q -10 -3 -16 -13 q 10 1 16 13 Z" fill="#C9A14B"/><path d="M-53 -29 q -10 -3 -16 -13 q 10 1 16 13 Z" fill="#C9A14B"/></g><g transform="translate(320,440) scale(-1,1)"><path d="M0 0 q -34 -6 -58 -34" fill="none" stroke="#C9A14B" stroke-width="3"/><path d="M-8 -2 q -10 -3 -16 -13 q 10 1 16 13 Z" fill="#C9A14B"/><path d="M-17 -7 q -10 -3 -16 -13 q 10 1 16 13 Z" fill="#C9A14B"/><path d="M-26 -13 q -10 -3 -16 -13 q 10 1 16 13 Z" fill="#C9A14B"/><path d="M-35 -18 q -10 -3 -16 -13 q 10 1 16 13 Z" fill="#C9A14B"/><path d="M-44 -24 q -10 -3 -16 -13 q 10 1 16 13 Z" fill="#C9A14B"/><path d="M-53 -29 q -10 -3 -16 -13 q 10 1 16 13 Z" fill="#C9A14B"/></g><circle cx="320" cy="440" r="4.5" fill="#C9A14B"/>
</svg>